<svg width="531" height="129" viewBox="0 0 531 129" fill="none" xmlns="http://www.w3.org/2000/svg">
<path d="M1.20905 22.4636C-0.684734 19.8229 -0.0453568 16.1953 2.63714 14.3611C5.31964 12.5269 9.02945 13.1808 10.9232 15.8215L19.2975 27.4989C21.1913 30.1396 20.5519 33.7672 17.8694 35.6014C15.1869 37.4356 11.4771 36.7817 9.58332 34.141L1.20905 22.4636Z" fill="#2C567A"/>
<path d="M20.6378 9.1794C18.744 6.53865 19.3834 2.91102 22.0659 1.07685C24.7484 -0.75732 28.4582 -0.103456 30.3519 2.53729L38.7262 14.2146C40.62 16.8554 39.9806 20.483 37.2981 22.3172C34.6156 24.1513 30.9058 23.4975 29.012 20.8567L20.6378 9.1794Z" fill="#2C567A"/>
<path d="M53.5 81.7611C55.3614 80.5878 61.7547 76.6776 64.2454 73.7227C64.5502 73.3612 65.0395 73.2077 65.4563 73.4311C69.393 75.5406 83.0763 84.5476 85.0001 78.6215C87.0707 72.2428 78.0003 73.3023 73.2073 71.681C54.6619 65.4079 54.7944 56.5989 54.7944 50.8596C54.7944 41.6502 65.7891 33.1081 78.7709 33.1081C87.6462 33.1081 96.7864 35.911 101.025 43.3853C103.277 47.3894 102.218 51.2601 99.4357 52.8617C95.3292 55.2642 91.4877 54.3299 87.6462 51.3935C84.9968 49.3915 82.6124 48.5906 80.228 48.5906C76.254 48.5906 73.4722 49.9254 73.4722 52.3278C73.4722 54.3299 75.0618 55.5311 78.7709 56.7323L88.176 59.9356C103.145 64.874 104.999 74.6173 104.999 78.6215C103.999 92.0001 93.0417 98.5001 78.7709 98.0001C64.5001 97.5001 52.5003 82.3912 53.5 81.7611Z" fill="#2C567A"/>
<path d="M51.9653 20.1358C52.3717 19.4828 53.3365 19.4478 53.7885 20.0782L61.9116 31.4044C60.64 32.1096 59.4349 32.889 58.309 33.7354C52.9564 37.7599 48.7944 43.7964 48.7944 50.8604C48.7944 53.6657 48.6653 58.9129 51.9399 64.2208C53.4659 66.6941 55.5866 68.9728 58.4213 71.044C58.0829 71.3331 57.6947 71.6423 57.268 71.9727L56.184 72.7149C43.8011 81.1816 26.6761 78.1629 17.934 65.9727L7.6274 51.6007C7.18042 50.9774 7.53254 50.1123 8.28853 49.9512C30.8569 45.1523 40.7606 38.1565 51.9653 20.1358Z" fill="#2C567A"/>
<path d="M65.3471 36.3663C71.2107 46.2032 70.0535 58.3955 62.9428 66.8839C55.3907 61.8641 54.8373 56.2491 54.7973 51.9708L54.7944 50.8596C54.7944 45.1437 59.0299 39.6854 65.3471 36.3663Z" fill="#2C567A"/>
<path d="M531 8.42005V89.7963C531 94.4885 526.886 98.1082 522 98.1082C517.243 98.1082 513.129 94.3544 513 89.7963V8.42005C513.129 3.86192 517.243 0.108154 522 0.108154C526.886 0.108154 531 3.72785 531 8.42005Z" fill="#2C567A"/>
<path d="M507 8.42005V89.7963C507 94.4885 502.886 98.1082 498 98.1082C493.243 98.1082 489.129 94.3544 489 89.7963V8.42005C489.129 3.86192 493.243 0.108154 498 0.108154C502.886 0.108154 507 3.72785 507 8.42005Z" fill="#2C567A"/>
<path d="M437.683 60.0463H464.449C463.522 52.4071 458.354 48.6545 451.464 48.6545C444.573 48.6545 439.273 52.1391 437.683 60.0463ZM475.05 80.0154C478.495 84.036 477.17 89.7989 472.665 92.4793C466.437 96.6339 458.619 98.1082 451.331 98.1082C433.576 98.1082 419 85.1082 419 65.4071C419 45.7061 433.576 33.1082 451.331 33.1082C468.954 33.1082 483 46.2422 483 65.9432C483 69.2937 480.217 71.7061 477.302 71.7061H437.418C438.346 78.9432 446.164 82.0257 452.656 82.0257C456.366 82.0257 459.547 81.7576 463.389 79.0772C467.629 76.1288 472.4 76.9329 475.05 80.0154Z" fill="#2C567A"/>
<path d="M378.873 41.6722L387.752 72.102L397.426 39.9295C398.486 35.7739 403.257 32.9588 409.088 34.5674C413.594 35.7739 416.112 41.4041 414.522 45.6938L398.884 90.8693C397.294 95.4271 393.716 98.1082 389.21 98.1082H388.415C383.909 98.1082 380.463 95.4271 379.138 90.8693L369.066 57.6244L359.392 90.8693C357.934 95.4271 354.621 98.1082 350.115 98.1082H349.32C344.815 98.1082 341.369 95.4271 339.646 90.8693L323.478 45.6938C321.888 41.4041 324.406 35.7739 328.912 34.5674C334.743 32.9588 339.514 35.7739 340.574 39.9295L350.248 72.102L359.127 41.6722C360.585 36.5782 363.898 34.1653 368.536 34.1653H369.596C374.235 34.1653 377.415 36.5782 378.873 41.6722Z" fill="#2C567A"/>
<path d="M273.683 60.0463H300.449C299.522 52.4071 294.354 48.6545 287.464 48.6545C280.574 48.6545 275.273 52.1391 273.683 60.0463ZM311.05 80.0154C314.495 84.036 313.17 89.7989 308.665 92.4793C302.437 96.6339 294.619 98.1082 287.331 98.1082C269.576 98.1082 255 85.1082 255 65.4071C255 45.7061 269.576 33.1082 287.331 33.1082C304.954 33.1082 319 46.2422 319 65.9432C319 69.2937 316.217 71.7061 313.302 71.7061H273.418C274.346 78.9432 282.164 82.0257 288.656 82.0257C292.366 82.0257 295.547 81.7576 299.389 79.0772C303.629 76.1288 308.4 76.9329 311.05 80.0154Z" fill="#2C567A"/>
<path d="M187.947 115.647C185.436 112.431 185.7 107.071 189.004 104.124C192.308 101.042 197.858 101.712 200.369 104.526C203.805 108.277 209.091 111.359 214.112 111.359C228.12 111.359 231.953 101.578 231.16 89.1166V87.3747C227.195 94.4763 219.663 98.094 211.998 98.094C196.272 98.094 182 86.3028 182 65.5341C182 44.7654 196.272 33.1082 211.998 33.1082C215.963 33.1082 225.213 34.85 230.499 43.1575V41.9516C230.631 37.3959 234.86 33.6441 239.75 33.6441C244.771 33.6441 249 37.2619 249 41.9516V88.1787C249 115.111 236.049 128.108 214.112 128.108C203.408 128.108 194.026 123.284 187.947 115.647ZM201.03 65.6681C201.03 73.9756 206.316 81.4791 215.566 81.4791C223.892 81.4791 230.631 73.9756 230.631 65.6681C230.631 57.3606 223.892 49.8571 215.566 49.8571C206.316 49.8571 201.03 57.3606 201.03 65.6681Z" fill="#2C567A"/>
<path d="M157.499 43.1597V41.9535C157.631 37.3968 161.86 33.6442 166.75 33.6442C171.771 33.6442 176 37.2628 176 41.9535V89.2628C176 93.9535 171.771 97.5721 166.75 97.5721C161.86 97.5721 157.631 93.8195 157.499 89.2628V88.0566C153.535 94.6236 146.002 98.1082 138.998 98.1082C123.272 98.1082 109 86.3143 109 65.5411C109 44.7679 123.272 33.1082 138.998 33.1082C142.963 33.1082 152.213 34.8504 157.499 43.1597ZM128.03 65.6752C128.03 73.9844 133.316 81.4896 142.566 81.4896C150.892 81.4896 157.631 73.9844 157.631 65.6752C157.631 57.3659 150.892 49.8607 142.566 49.8607C133.316 49.8607 128.03 57.3659 128.03 65.6752Z" fill="#2C567A"/>
</svg>
