<svg version="1.2" xmlns="http://www.w3.org/2000/svg" viewBox="0 0 912 864" width="912" height="864">
	<title>image</title>
	<style>
		.s0 { fill: #97df72 } 
		.s1 { fill: #223645 } 
	</style>
	<path fill-rule="evenodd" class="s0" d="m715.5 103.2c106 73.1 163.9 197.3 169 326 4.6 117.8-58.3 222.8-144.1 303.7-82.1 77.6-188.2 127.4-300.5 115.9-113.6-11.7-205.2-84.3-274.7-175-81-105.9-166.9-227.7-132.2-356.4 36.7-136.4 165.7-226 300.4-268.3 129.2-40.6 270.8-22.7 382.1 54.1z"/>
	<path fill-rule="evenodd" class="s1" d="m488.8 22.2c114.5 4.9 216.9 71.1 281.7 165.7 59.3 86.6 61.6 195.6 35.3 297.2-25.2 97.4-81.5 185.2-171.6 229.7-91.2 45-194.7 33.7-290-1.8-111.2-41.4-233.6-92.5-268.5-206-36.9-120.2 17.8-248.9 99.4-344.6 78.1-91.7 193.3-145.3 313.7-140.2z"/>
</svg>